<svg xmlns="http://www.w3.org/2000/svg" width="14" height="14" viewBox="0 0 14 14">
  <g id="Group_2556" data-name="Group 2556" transform="translate(-319 -210)">
    <path id="Combined_Shape" data-name="Combined Shape" d="M1.236,13V10.259A6.225,6.225,0,0,1,0,6.545,6.783,6.783,0,0,1,7,0a6.784,6.784,0,0,1,7,6.545,6.784,6.784,0,0,1-7,6.545,7.418,7.418,0,0,1-2.491-.426L2.8,13.825A.989.989,0,0,1,2.239,14,1,1,0,0,1,1.236,13Z" transform="translate(319 210)" fill="#99a5c5"/>
    <circle id="Oval_2" data-name="Oval 2" cx="1.5" cy="1.5" r="1.5" transform="translate(322 215)" fill="#1f1c34"/>
    <circle id="Oval_2_Copy" data-name="Oval 2 Copy" cx="1.5" cy="1.5" r="1.5" transform="translate(327 215)" fill="#1f1c34"/>
  </g>
</svg>
