<svg id="library-bookmark" xmlns="http://www.w3.org/2000/svg" width="17.692" height="20.22" viewBox="0 0 17.692 20.22">
  <g id="Group_76" data-name="Group 76" transform="translate(0)">
    <path id="Path_146" data-name="Path 146" d="M98.466,0H82.74c-.541,0-.983.329-.983.732V19.486a.767.767,0,0,0,.623.683,1.2,1.2,0,0,0,1.081-.2L90.8,13.983l6.929,5.979a1.181,1.181,0,0,0,.737.256,1.117,1.117,0,0,0,.344-.049.786.786,0,0,0,.639-.683V.732C99.449.329,99.007,0,98.466,0Zm-.983,17.522L91.57,12.409a1.115,1.115,0,0,0-.737-.256,1.14,1.14,0,0,0-.737.244l-6.372,5.21V1.464H97.483Z" transform="translate(-81.757)" fill="#c3c9df"/>
  </g>
</svg>
