<svg xmlns="http://www.w3.org/2000/svg" width="19.102" height="19" viewBox="0 0 19.102 19">
  <g id="edit" transform="translate(0 -0.269)">
    <path id="Path_43" data-name="Path 43" d="M18.554,29.772a.5.5,0,0,0-.5.5v4.446a1.5,1.5,0,0,1-1.5,1.5H2.5a1.5,1.5,0,0,1-1.5-1.5V21.671a1.5,1.5,0,0,1,1.5-1.5H6.949a.5.5,0,0,0,0-1H2.5a2.506,2.506,0,0,0-2.5,2.5V34.718a2.506,2.506,0,0,0,2.5,2.5H16.552a2.506,2.506,0,0,0,2.5-2.5V30.273A.5.5,0,0,0,18.554,29.772Zm0,0" transform="translate(0 -17.953)" fill="#adb8d5"/>
    <path id="Path_44" data-name="Path 44" d="M156.367,39.639l7.31-7.311,2.358,2.358L158.725,42Zm0,0" transform="translate(-148.538 -30.454)" fill="#adb8d5"/>
    <path id="Path_45" data-name="Path 45" d="M132.543,199.824l2.605-.722-1.884-1.884Zm0,0" transform="translate(-125.907 -187.09)" fill="#adb8d5"/>
    <path id="Path_46" data-name="Path 46" d="M318.828.635a1.253,1.253,0,0,0-1.77,0l-.531.531,2.358,2.358.531-.531a1.253,1.253,0,0,0,0-1.77Zm0,0" transform="translate(-300.679 0)" fill="#adb8d5"/>
  </g>
</svg>
