<svg xmlns="http://www.w3.org/2000/svg" width="23.977" height="24" viewBox="0 0 23.977 24">
  <g id="send1_icon" transform="translate(-0.022)">
    <path id="Shape" d="M23.6.147A.837.837,0,0,1,23.965,1L20.539,21.576a.844.844,0,0,1-.428.6.821.821,0,0,1-.415.107.9.9,0,0,1-.321-.067l-6.061-2.478-3.238,3.951A.788.788,0,0,1,9.421,24a.723.723,0,0,1-.294-.054.857.857,0,0,1-.562-.8V18.469L20.125,4.286,5.822,16.674.537,14.5A.848.848,0,0,1,.43,12.978L22.694.121A.818.818,0,0,1,23.122,0,.83.83,0,0,1,23.6.147Z" transform="translate(0.022)" fill="#c3c9df"/>
  </g>
</svg>
