<svg id="Group_201" data-name="Group 201" xmlns="http://www.w3.org/2000/svg" width="32.918" height="32.918" viewBox="0 0 32.918 32.918">
  <circle id="Oval" cx="16.459" cy="16.459" r="16.459" fill="#1f1c34"/>
  <path id="share" d="M14.87,2.138a2.3,2.3,0,0,0-2.216,2.944L5.909,7.909A2.308,2.308,0,1,0,5.6,10.627L9.946,13.75a2.321,2.321,0,1,0,.332-.472L5.939,10.16a2.292,2.292,0,0,0,.194-1.72l6.749-2.829A2.306,2.306,0,1,0,14.87,2.137ZM11.986,13.1a1.73,1.73,0,1,1-1.73,1.73A1.732,1.732,0,0,1,11.986,13.1ZM3.912,10.789a1.73,1.73,0,1,1,1.73-1.73A1.732,1.732,0,0,1,3.912,10.789ZM14.87,6.175a1.73,1.73,0,1,1,1.73-1.73A1.732,1.732,0,0,1,14.87,6.175Z" transform="translate(7.282 6.75)" fill="#acbbdf"/>
</svg>
