<svg xmlns="http://www.w3.org/2000/svg" xmlns:xlink="http://www.w3.org/1999/xlink" width="80.918" height="80.918" viewBox="0 0 80.918 80.918">
  <defs>
    <filter id="Oval" x="0" y="0" width="80.918" height="80.918" filterUnits="userSpaceOnUse">
      <feOffset input="SourceAlpha"/>
      <feGaussianBlur stdDeviation="8" result="blur"/>
      <feFlood flood-color="#d3ddf6" flood-opacity="0.4"/>
      <feComposite operator="in" in2="blur"/>
      <feComposite in="SourceGraphic"/>
    </filter>
  </defs>
  <g id="Group_208" data-name="Group 208" transform="translate(24 24)">
    <g transform="matrix(1, 0, 0, 1, -24, -24)" filter="url(#Oval)">
      <circle id="Oval-2" data-name="Oval" cx="16.459" cy="16.459" r="16.459" transform="translate(24 24)" fill="#1f1c34"/>
    </g>
    <path id="like2" d="M14.469,9.664a1.213,1.213,0,0,0-1.259-1.211H8.681A9.48,9.48,0,0,0,9.49,4.92c0-1.659-.832-2.007-1.531-2.007A1.034,1.034,0,0,0,6.9,3.834,5.155,5.155,0,0,1,5.5,7.454C4.05,8.669,3.638,8.987,2.845,8.987c-.926,0-2.571.02-2.571.02L0,9.011v6.475h3.03a6.165,6.165,0,0,1,1.308.494,7.628,7.628,0,0,0,2.491.817l4.377,0A1.273,1.273,0,0,0,12.5,15.548a1.211,1.211,0,0,0-.262-.745,1.236,1.236,0,0,0,.645-1.954,1.271,1.271,0,0,0,.89-1.208,1.258,1.258,0,0,0-.257-.759,1.258,1.258,0,0,0,.955-1.217Zm-1.259.7h-.967v.556H12.5a.718.718,0,1,1,0,1.436h-.81v.556H11.9a.692.692,0,0,1,0,1.385H11.13v.556h.076a.694.694,0,1,1,0,1.385h-.711v0H6.829a7.6,7.6,0,0,1-2.265-.769A5.048,5.048,0,0,0,3.03,14.93H.556V9.561c.507-.006,1.6-.017,2.289-.017,1.029,0,1.57-.453,3.013-1.664a5.607,5.607,0,0,0,1.6-4.046c0-.227.349-.365.5-.365.291,0,.975,0,.975,1.451A9.42,9.42,0,0,1,8,8.6l-.207.4H11.2a.012.012,0,0,0,.016,0H13.21a.662.662,0,0,1,.7.654.7.7,0,0,1-.7.7Z" transform="translate(8.887 7.083)" fill="#acbbdf"/>
  </g>
</svg>
