<svg xmlns="http://www.w3.org/2000/svg" width="24" height="24" viewBox="0 0 24 24">
  <g id="settings" transform="translate(1 1)">
    <path id="Oval" d="M3,0A3,3,0,1,1,0,3,3,3,0,0,1,3,0Z" transform="translate(8 8)" fill="none" stroke="#111029" stroke-linecap="round" stroke-linejoin="round" stroke-miterlimit="10" stroke-width="2"/>
    <path id="Shape" d="M18.4,14a1.65,1.65,0,0,0,.33,1.82l.06.06a2,2,0,1,1-2.83,2.83l-.06-.06a1.663,1.663,0,0,0-2.82,1.18V20a2,2,0,1,1-4,0v-.09A1.65,1.65,0,0,0,8,18.4a1.65,1.65,0,0,0-1.82.33l-.06.06a2,2,0,1,1-2.83-2.83l.06-.06a1.663,1.663,0,0,0-1.18-2.82H2a2,2,0,1,1,0-4h.09A1.65,1.65,0,0,0,3.6,8a1.65,1.65,0,0,0-.33-1.82l-.06-.06A2,2,0,1,1,6.04,3.29l.06.06a1.65,1.65,0,0,0,1.82.33H8A1.65,1.65,0,0,0,9,2.17V2a2,2,0,0,1,4,0v.09a1.663,1.663,0,0,0,2.82,1.18l.06-.06a2,2,0,1,1,2.83,2.83l-.06.06a1.65,1.65,0,0,0-.33,1.82V8a1.65,1.65,0,0,0,1.51,1H20a2,2,0,0,1,0,4h-.09A1.65,1.65,0,0,0,18.4,14Z" fill="none" stroke="#111029" stroke-linecap="round" stroke-linejoin="round" stroke-miterlimit="10" stroke-width="2"/>
  </g>
</svg>
