<svg xmlns="http://www.w3.org/2000/svg" width="26.579" height="31.75" viewBox="0 0 26.579 31.75">
  <g id="apple-logo" transform="translate(-38.692)">
    <g id="Group_2564" data-name="Group 2564" transform="translate(38.692 0)">
      <path id="Path_3420" data-name="Path 3420" d="M62.256,120.953A7.265,7.265,0,0,1,60.94,116.7a6.8,6.8,0,0,1,1.24-3.95,12.363,12.363,0,0,1,2.175-2.251,9.839,9.839,0,0,0-1.985-1.908,6.977,6.977,0,0,0-4.064-1.24,10.767,10.767,0,0,0-3.3.649,9.555,9.555,0,0,1-2.728.649,12.275,12.275,0,0,1-2.633-.572,12.693,12.693,0,0,0-3.377-.572,6.587,6.587,0,0,0-5.419,2.748,11.321,11.321,0,0,0-2.156,7.136,19.561,19.561,0,0,0,2.8,9.6q2.843,4.942,5.743,4.942a6.9,6.9,0,0,0,2.518-.649,7.354,7.354,0,0,1,2.71-.63,8.437,8.437,0,0,1,2.881.61,8.822,8.822,0,0,0,2.671.61q2.442,0,4.9-3.74a18.418,18.418,0,0,0,2.347-4.77A5.8,5.8,0,0,1,62.256,120.953Z" transform="translate(-38.692 -100.175)" fill="#414054"/>
      <path id="Path_3421" data-name="Path 3421" d="M237.73,6.029A7.832,7.832,0,0,0,239.5,3.4a7.278,7.278,0,0,0,.553-2.6c0-.051,0-.114-.01-.191s-.009-.14-.009-.191a1.831,1.831,0,0,1-.048-.21,1.768,1.768,0,0,0-.048-.21,7.6,7.6,0,0,0-4.77,2.824,8.7,8.7,0,0,0-1.488,4.9,10.662,10.662,0,0,0,1.984-.324A5.408,5.408,0,0,0,237.73,6.029Z" transform="translate(-220.654 0)" fill="#414054"/>
    </g>
  </g>
</svg>
