<svg xmlns="http://www.w3.org/2000/svg" width="27.75" height="27.75" viewBox="0 0 27.75 27.75">
  <path id="Path_3416" data-name="Path 3416" d="M27.211,22.066l-3.076-2.051L21.4,18.192a1.211,1.211,0,0,0-1.627.264l-1.692,2.175a1.205,1.205,0,0,1-1.539.319,19.7,19.7,0,0,1-5.5-4.24,19.844,19.844,0,0,1-4.24-5.5A1.205,1.205,0,0,1,7.119,9.67L9.295,7.978a1.211,1.211,0,0,0,.264-1.627L7.792,3.7,5.685.54A1.211,1.211,0,0,0,4.054.173L1.624,1.63A2.969,2.969,0,0,0,.275,3.375c-.665,2.423-.8,7.768,7.767,16.333s13.91,8.431,16.333,7.767a2.969,2.969,0,0,0,1.745-1.348l1.458-2.43A1.211,1.211,0,0,0,27.211,22.066Z" transform="translate(0)" fill="#111029" opacity="0.8"/>
</svg>
