<svg xmlns="http://www.w3.org/2000/svg" xmlns:xlink="http://www.w3.org/1999/xlink" width="70.689" height="70.689" viewBox="0 0 70.689 70.689">
  <defs>
    <linearGradient id="linear-gradient" x1="0.5" y1="1" x2="0.5" gradientUnits="objectBoundingBox">
      <stop offset="0" stop-color="#b8bbc2"/>
      <stop offset="1" stop-color="#5c5e61"/>
    </linearGradient>
    <filter id="Rectangle" x="0" y="0" width="70.689" height="70.689" filterUnits="userSpaceOnUse">
      <feOffset dy="8" input="SourceAlpha"/>
      <feGaussianBlur stdDeviation="5" result="blur"/>
      <feFlood flood-opacity="0.149"/>
      <feComposite operator="in" in2="blur"/>
      <feComposite in="SourceGraphic"/>
    </filter>
  </defs>
  <g id="Group_2561" data-name="Group 2561" transform="translate(-179.25 -638)">
    <g id="Group_2558" data-name="Group 2558">
      <g transform="matrix(1, 0, 0, 1, 179.25, 638)" filter="url(#Rectangle)">
        <rect id="Rectangle-2" data-name="Rectangle" width="40.689" height="40.689" rx="20.344" transform="translate(15 7)" fill="url(#linear-gradient)"/>
      </g>
    </g>
    <path id="Path_3415" data-name="Path 3415" d="M19.432,15.757l-2.2-1.465-1.953-1.3a.865.865,0,0,0-1.162.189l-1.208,1.554a.861.861,0,0,1-1.1.228,14.07,14.07,0,0,1-3.929-3.028A14.171,14.171,0,0,1,4.856,8a.861.861,0,0,1,.228-1.1L6.637,5.7a.865.865,0,0,0,.189-1.162L5.564,2.642,4.06.385A.865.865,0,0,0,2.895.123L1.16,1.164A2.12,2.12,0,0,0,.2,2.41c-.475,1.73-.57,5.547,5.546,11.664s9.933,6.021,11.663,5.546a2.12,2.12,0,0,0,1.246-.963l1.041-1.735A.865.865,0,0,0,19.432,15.757Z" transform="translate(204.933 655.934)" fill="#fff"/>
  </g>
</svg>
