<?xml version="1.0" encoding="UTF-8" standalone="no" ?>
<!DOCTYPE svg PUBLIC "-//W3C//DTD SVG 1.1//EN" "http://www.w3.org/Graphics/SVG/1.1/DTD/svg11.dtd">
<svg xmlns="http://www.w3.org/2000/svg" xmlns:xlink="http://www.w3.org/1999/xlink" version="1.1" width="350" height="350" viewBox="0 0 350 350" xml:space="preserve">
<desc>Created with Fabric.js 1.7.22</desc>
<defs>
</defs>
<g id="icon" style="stroke: none; stroke-width: 1; stroke-dasharray: none; stroke-linecap: butt; stroke-linejoin: miter; stroke-miterlimit: 10; fill: none; fill-rule: nonzero; opacity: 1;" transform="translate(351.9328473602827 -1.9328473602827216) rotate(90) scale(3.87 3.87)" >
	<rect x="15.52" y="5" rx="0" ry="0" width="59.5" height="80.54" style="stroke: none; stroke-width: 1; stroke-dasharray: none; stroke-linecap: butt; stroke-linejoin: miter; stroke-miterlimit: 10; fill: rgb(8,8,8); fill-rule: nonzero; opacity: 1;" transform=" matrix(1 0 0 1 0 0) "/>
	<path d="M 80.022 90.544 H 10.518 V 0 h 69.504 V 90.544 z M 20.518 80.544 h 49.504 V 10 H 20.518 V 80.544 z" style="stroke: none; stroke-width: 1; stroke-dasharray: none; stroke-linecap: butt; stroke-linejoin: miter; stroke-miterlimit: 10; fill: rgb(8,8,8); fill-rule: nonzero; opacity: 1;" transform=" matrix(1 0 0 1 0 0) " stroke-linecap="round" />
	<path d="M 76.522 87.044 H 14.018 V 3.5 h 62.504 V 87.044 z M 17.018 84.044 h 56.504 V 6.5 H 17.018 V 84.044 z" style="stroke: none; stroke-width: 1; stroke-dasharray: none; stroke-linecap: butt; stroke-linejoin: miter; stroke-miterlimit: 10; fill: rgb(255,255,255); fill-rule: nonzero; opacity: 1;" transform=" matrix(1 0 0 1 0 0) " stroke-linecap="round" />
	<path d="M 75.022 46.772 H 15.518 c -0.829 0 -1.5 -0.672 -1.5 -1.5 s 0.671 -1.5 1.5 -1.5 h 59.504 c 0.829 0 1.5 0.672 1.5 1.5 S 75.851 46.772 75.022 46.772 z" style="stroke: none; stroke-width: 1; stroke-dasharray: none; stroke-linecap: butt; stroke-linejoin: miter; stroke-miterlimit: 10; fill: rgb(255,255,255); fill-rule: nonzero; opacity: 1;" transform=" matrix(1 0 0 1 0 0) " stroke-linecap="round" />
	<path d="M 45.27 54.772 c -5.238 0 -9.5 -4.262 -9.5 -9.5 s 4.262 -9.5 9.5 -9.5 s 9.5 4.262 9.5 9.5 S 50.508 54.772 45.27 54.772 z M 45.27 38.772 c -3.584 0 -6.5 2.916 -6.5 6.5 s 2.916 6.5 6.5 6.5 s 6.5 -2.916 6.5 -6.5 S 48.854 38.772 45.27 38.772 z" style="stroke: none; stroke-width: 1; stroke-dasharray: none; stroke-linecap: butt; stroke-linejoin: miter; stroke-miterlimit: 10; fill: rgb(255,255,255); fill-rule: nonzero; opacity: 1;" transform=" matrix(1 0 0 1 0 0) " stroke-linecap="round" />
	<path d="M 57.536 87.044 H 33.003 V 74.017 h 24.533 V 87.044 z M 36.003 84.044 h 18.533 v -7.027 H 36.003 V 84.044 z" style="stroke: none; stroke-width: 1; stroke-dasharray: none; stroke-linecap: butt; stroke-linejoin: miter; stroke-miterlimit: 10; fill: rgb(255,255,255); fill-rule: nonzero; opacity: 1;" transform=" matrix(1 0 0 1 0 0) " stroke-linecap="round" />
	<path d="M 57.536 16.527 H 33.003 V 3.5 h 24.533 V 16.527 z M 36.003 13.527 h 18.533 V 6.5 H 36.003 V 13.527 z" style="stroke: none; stroke-width: 1; stroke-dasharray: none; stroke-linecap: butt; stroke-linejoin: miter; stroke-miterlimit: 10; fill: rgb(255,255,255); fill-rule: nonzero; opacity: 1;" transform=" matrix(1 0 0 1 0 0) " stroke-linecap="round" />
	<path d="M 15.518 14.5 v -3 c 3.584 0 6.5 -2.916 6.5 -6.5 h 3 C 25.018 10.238 20.756 14.5 15.518 14.5 z" style="stroke: none; stroke-width: 1; stroke-dasharray: none; stroke-linecap: butt; stroke-linejoin: miter; stroke-miterlimit: 10; fill: rgb(255,255,255); fill-rule: nonzero; opacity: 1;" transform=" matrix(1 0 0 1 0 0) " stroke-linecap="round" />
	<path d="M 75.022 14.5 c -5.238 0 -9.5 -4.262 -9.5 -9.5 h 3 c 0 3.584 2.916 6.5 6.5 6.5 V 14.5 z" style="stroke: none; stroke-width: 1; stroke-dasharray: none; stroke-linecap: butt; stroke-linejoin: miter; stroke-miterlimit: 10; fill: rgb(255,255,255); fill-rule: nonzero; opacity: 1;" transform=" matrix(1 0 0 1 0 0) " stroke-linecap="round" />
	<path d="M 25.018 85.544 h -3 c 0 -3.584 -2.916 -6.5 -6.5 -6.5 v -3 C 20.756 76.044 25.018 80.306 25.018 85.544 z" style="stroke: none; stroke-width: 1; stroke-dasharray: none; stroke-linecap: butt; stroke-linejoin: miter; stroke-miterlimit: 10; fill: rgb(255,255,255); fill-rule: nonzero; opacity: 1;" transform=" matrix(1 0 0 1 0 0) " stroke-linecap="round" />
	<path d="M 68.522 85.544 h -3 c 0 -5.238 4.262 -9.5 9.5 -9.5 v 3 C 71.438 79.044 68.522 81.96 68.522 85.544 z" style="stroke: none; stroke-width: 1; stroke-dasharray: none; stroke-linecap: butt; stroke-linejoin: miter; stroke-miterlimit: 10; fill: rgb(255,255,255); fill-rule: nonzero; opacity: 1;" transform=" matrix(1 0 0 1 0 0) " stroke-linecap="round" />
	<path d="M 53.241 36.878 c -2.024 -1.922 -4.741 -3.119 -7.739 -3.178 l 0.678 2.805 l 3.454 1.416 L 53.241 36.878 z" style="stroke: none; stroke-width: 1; stroke-dasharray: none; stroke-linecap: butt; stroke-linejoin: miter; stroke-miterlimit: 10; fill: rgb(241,241,241); fill-rule: nonzero; opacity: 1;" transform=" matrix(1 0 0 1 0 0) " stroke-linecap="round" />
	<polygon points="51.99,49.42 53.1,45.69 49.77,42.71 45.91,43.86 44.64,47.64 46.8,50.12 " style="stroke: none; stroke-width: 1; stroke-dasharray: none; stroke-linecap: butt; stroke-linejoin: miter; stroke-miterlimit: 10; fill: rgb(241,241,241); fill-rule: nonzero; opacity: 1;" transform="  matrix(1 0 0 1 0 0) "/>
	<polygon points="45.17,43.62 42.88,40.54 38.01,41.56 37.19,44.48 40.42,48.21 43.89,47.41 " style="stroke: none; stroke-width: 1; stroke-dasharray: none; stroke-linecap: butt; stroke-linejoin: miter; stroke-miterlimit: 10; fill: rgb(241,241,241); fill-rule: nonzero; opacity: 1;" transform="  matrix(1 0 0 1 0 0) "/>
	<path d="M 53.862 37.511 l -3.647 1.054 v 3.495 l 3.552 3.172 L 56.839 45 C 56.772 42.122 55.661 39.501 53.862 37.511 z" style="stroke: none; stroke-width: 1; stroke-dasharray: none; stroke-linecap: butt; stroke-linejoin: miter; stroke-miterlimit: 10; fill: rgb(241,241,241); fill-rule: nonzero; opacity: 1;" transform=" matrix(1 0 0 1 0 0) " stroke-linecap="round" />
	<path d="M 44.701 33.712 c -3.558 0.173 -6.695 1.949 -8.7 4.624 l 1.869 2.453 l 4.886 -1.016 l 2.65 -3.148 L 44.701 33.712 z" style="stroke: none; stroke-width: 1; stroke-dasharray: none; stroke-linecap: butt; stroke-linejoin: miter; stroke-miterlimit: 10; fill: rgb(241,241,241); fill-rule: nonzero; opacity: 1;" transform=" matrix(1 0 0 1 0 0) " stroke-linecap="round" />
	<path d="M 44.796 56.476 v -0.035 l -0.446 -2.635 l -3.966 -1.181 l -2.463 1.578 c 1.902 1.567 4.307 2.544 6.942 2.635 l -0.061 -0.363 H 44.796 z" style="stroke: none; stroke-width: 1; stroke-dasharray: none; stroke-linecap: butt; stroke-linejoin: miter; stroke-miterlimit: 10; fill: rgb(241,241,241); fill-rule: nonzero; opacity: 1;" transform=" matrix(1 0 0 1 0 0) " stroke-linecap="round" />
	<path d="M 39.991 51.952 v -3.048 l -3.398 -3.931 l -2.899 0.298 c 0 3.308 1.389 6.289 3.613 8.399 L 39.991 51.952 z" style="stroke: none; stroke-width: 1; stroke-dasharray: none; stroke-linecap: butt; stroke-linejoin: miter; stroke-miterlimit: 10; fill: rgb(241,241,241); fill-rule: nonzero; opacity: 1;" transform=" matrix(1 0 0 1 0 0) " stroke-linecap="round" />
	<path d="M 46.991 50.883 l -1.883 2.72 l 0.547 3.237 c 3.17 -0.104 6.016 -1.479 8.045 -3.636 l -1.667 -3.005 L 46.991 50.883 z" style="stroke: none; stroke-width: 1; stroke-dasharray: none; stroke-linecap: butt; stroke-linejoin: miter; stroke-miterlimit: 10; fill: rgb(241,241,241); fill-rule: nonzero; opacity: 1;" transform=" matrix(1 0 0 1 0 0) " stroke-linecap="round" />
	<path d="M 44.851 34.113 c -0.014 0.014 -0.029 0.028 -0.043 0.042 l -0.107 -0.444 c -3.558 0.173 -6.695 1.949 -8.7 4.624 l 1.869 2.453 l 2.636 -0.548 c 0.879 -2.063 2.33 -4.104 4.345 -6.125 V 34.113 z" style="stroke: none; stroke-width: 1; stroke-dasharray: none; stroke-linecap: butt; stroke-linejoin: miter; stroke-miterlimit: 10; fill: rgb(219,219,219); fill-rule: nonzero; opacity: 1;" transform=" matrix(1 0 0 1 0 0) " stroke-linecap="round" />
	<path d="M 38.013 41.556 l -0.82 2.918 l 2.528 2.925 c -0.423 -2.118 -0.272 -4.216 0.451 -6.292 L 38.013 41.556 z" style="stroke: none; stroke-width: 1; stroke-dasharray: none; stroke-linecap: butt; stroke-linejoin: miter; stroke-miterlimit: 10; fill: rgb(219,219,219); fill-rule: nonzero; opacity: 1;" transform=" matrix(1 0 0 1 0 0) " stroke-linecap="round" />
	<path d="M 44.796 56.476 v -0.035 l -0.021 -0.122 c 0.007 0.007 0.014 0.015 0.021 0.022 v -0.008 c -0.975 -1.054 -1.825 -2.103 -2.531 -3.148 c 0 0 0 0 0 0 l -1.88 -0.56 l -2.463 1.578 c 1.902 1.567 4.307 2.544 6.942 2.635 l -0.061 -0.363 H 44.796 z" style="stroke: none; stroke-width: 1; stroke-dasharray: none; stroke-linecap: butt; stroke-linejoin: miter; stroke-miterlimit: 10; fill: rgb(219,219,219); fill-rule: nonzero; opacity: 1;" transform=" matrix(1 0 0 1 0 0) " stroke-linecap="round" />
	<path d="M 39.991 51.952 v -3.048 l -3.398 -3.931 l -2.899 0.298 c 0 3.308 1.389 6.289 3.613 8.399 L 39.991 51.952 z" style="stroke: none; stroke-width: 1; stroke-dasharray: none; stroke-linecap: butt; stroke-linejoin: miter; stroke-miterlimit: 10; fill: rgb(219,219,219); fill-rule: nonzero; opacity: 1;" transform=" matrix(1 0 0 1 0 0) " stroke-linecap="round" />
	<path d="M 39.991 48.905 v 3.048 l -2.683 1.719 c 0.196 0.186 0.396 0.367 0.605 0.539 l 2.473 -1.584 l 3.966 1.181 l 0.513 3.032 c 0.136 0.005 0.271 0.01 0.408 0.01 c 0.129 0 0.256 -0.006 0.384 -0.01 l -0.547 -3.237 l 1.883 -2.72 l 5.043 -0.684 l 1.667 3.005 c 0.017 -0.019 0.035 -0.037 0.053 -0.055 c 0.059 -0.062 0.115 -0.126 0.172 -0.189 c 0.821 -0.924 1.497 -1.979 1.991 -3.131 c 0.022 -0.054 0.045 -0.107 0.067 -0.161 c 0.029 -0.07 0.056 -0.14 0.083 -0.211 c 0.494 -1.314 0.754 -2.756 0.779 -4.327 c -0.001 -0.043 -0.002 -0.087 -0.003 -0.13 l -3.076 0.232 l -3.552 -3.172 v -3.495 l 3.647 -1.054 c -0.198 -0.219 -0.407 -0.429 -0.621 -0.633 l -3.607 1.042 l -3.454 -1.416 l -0.678 -2.805 c -0.077 -0.001 -0.153 -0.006 -0.23 -0.006 c -0.192 0 -0.382 0.005 -0.571 0.014 l 0.705 2.916 l -2.65 3.148 l -4.886 1.016 l -1.869 -2.453 C 36.001 38.337 36 38.338 36 38.339 c -0.749 1.028 -1.304 2.092 -1.683 3.19 c -0.025 0.074 -0.052 0.149 -0.076 0.224 c -0.021 0.065 -0.04 0.13 -0.059 0.194 c -0.035 0.118 -0.069 0.236 -0.101 0.355 c -0.012 0.044 -0.024 0.089 -0.035 0.133 c -0.039 0.156 -0.076 0.312 -0.109 0.47 c -0.003 0.015 -0.007 0.029 -0.01 0.044 c -0.037 0.182 -0.07 0.365 -0.098 0.549 c -0.003 0.019 -0.005 0.039 -0.008 0.058 c -0.022 0.151 -0.042 0.304 -0.058 0.457 c -0.007 0.061 -0.012 0.122 -0.018 0.184 c -0.011 0.115 -0.019 0.231 -0.026 0.348 c -0.004 0.067 -0.009 0.135 -0.012 0.202 c -0.008 0.174 -0.013 0.349 -0.013 0.525 l 2.899 -0.298 L 39.991 48.905 z M 45.914 43.86 l 3.861 -1.146 l 3.327 2.972 l -1.117 3.733 l -5.18 0.702 l -2.167 -2.477 L 45.914 43.86 z M 38.013 41.556 l 4.87 -1.012 l 2.289 3.071 l -1.278 3.792 l -3.473 0.801 l -3.228 -3.734 L 38.013 41.556 z" style="stroke: none; stroke-width: 1; stroke-dasharray: none; stroke-linecap: butt; stroke-linejoin: miter; stroke-miterlimit: 10; fill: rgb(87,89,93); fill-rule: nonzero; opacity: 1;" transform=" matrix(1 0 0 1 0 0) " stroke-linecap="round" />
	<path d="M 44.809 34.156 c 0.153 -0.154 0.304 -0.308 0.463 -0.461 c -0.192 0 -0.382 0.005 -0.571 0.014 L 44.809 34.156 z" style="stroke: none; stroke-width: 1; stroke-dasharray: none; stroke-linecap: butt; stroke-linejoin: miter; stroke-miterlimit: 10; fill: rgb(63,64,66); fill-rule: nonzero; opacity: 1;" transform=" matrix(1 0 0 1 0 0) " stroke-linecap="round" />
	<path d="M 39.991 48.905 v 3.048 l -2.683 1.719 c 0.196 0.186 0.396 0.367 0.605 0.539 c 0 0 0 0 0 0 l 2.473 -1.584 l 1.88 0.56 c -1.315 -1.946 -2.162 -3.875 -2.544 -5.787 l -2.528 -2.925 l 0.82 -2.918 l 2.159 -0.449 c 0.101 -0.289 0.211 -0.578 0.334 -0.867 l -2.636 0.548 l -1.869 -2.453 c -0.001 0.001 -0.001 0.002 -0.002 0.003 c -0.749 1.028 -1.304 2.092 -1.683 3.19 c -0.012 0.036 -0.025 0.072 -0.037 0.108 c -0.013 0.039 -0.027 0.077 -0.039 0.116 c -0.021 0.065 -0.04 0.13 -0.059 0.194 c -0.034 0.115 -0.068 0.231 -0.099 0.347 c -0.001 0.003 -0.001 0.005 -0.002 0.008 c -0.012 0.044 -0.024 0.089 -0.035 0.133 c -0.039 0.156 -0.076 0.312 -0.109 0.471 c -0.003 0.015 -0.007 0.029 -0.01 0.044 c -0.037 0.182 -0.07 0.365 -0.098 0.549 c -0.003 0.019 -0.005 0.038 -0.008 0.057 c -0.021 0.143 -0.039 0.287 -0.055 0.432 c -0.001 0.009 -0.002 0.017 -0.003 0.026 c -0.007 0.061 -0.012 0.122 -0.018 0.184 c -0.009 0.102 -0.017 0.205 -0.023 0.308 c -0.001 0.013 -0.002 0.026 -0.003 0.04 c -0.004 0.067 -0.009 0.135 -0.012 0.202 c -0.008 0.174 -0.013 0.349 -0.013 0.525 l 2.899 -0.298 L 39.991 48.905 z" style="stroke: none; stroke-width: 1; stroke-dasharray: none; stroke-linecap: butt; stroke-linejoin: miter; stroke-miterlimit: 10; fill: rgb(63,64,66); fill-rule: nonzero; opacity: 1;" transform=" matrix(1 0 0 1 0 0) " stroke-linecap="round" />
	<path d="M 44.864 56.839 c 0.136 0.005 0.271 0.01 0.408 0.01 c -0.171 -0.177 -0.333 -0.354 -0.496 -0.53 L 44.864 56.839 z" style="stroke: none; stroke-width: 1; stroke-dasharray: none; stroke-linecap: butt; stroke-linejoin: miter; stroke-miterlimit: 10; fill: rgb(63,64,66); fill-rule: nonzero; opacity: 1;" transform=" matrix(1 0 0 1 0 0) " stroke-linecap="round" />
</g>
</svg>