<svg id="messenger-user-avatar" xmlns="http://www.w3.org/2000/svg" width="16.825" height="21.896" viewBox="0 0 16.825 21.896">
  <g id="Group_45" data-name="Group 45">
    <path id="Path_75" data-name="Path 75" d="M48.592,21.01a.89.89,0,0,0,.887.887H64.53a.89.89,0,0,0,.887-.887c0-4.909-2.218-9.122-5.337-10.808a5.567,5.567,0,1,0-6.136,0C50.81,11.887,48.592,16.1,48.592,21.01ZM57,1.774A3.785,3.785,0,1,1,53.22,5.559,3.792,3.792,0,0,1,57,1.774Zm0,9.389c3.46,0,6.3,3.948,6.609,8.96H50.4C50.706,15.11,53.545,11.163,57,11.163Z" transform="translate(-48.592)" fill="#c3c9df"/>
  </g>
</svg>
